<svg width="46" height="46" viewBox="0 0 46 46" fill="none" xmlns="http://www.w3.org/2000/svg">
<rect width="46" height="46" rx="12" fill="#00A3FF"/>
<path fill-rule="evenodd" clip-rule="evenodd" d="M24 24V31C24 31.2652 23.8946 31.5196 23.7071 31.7071C23.5196 31.8946 23.2652 32 23 32C22.7348 32 22.4804 31.8946 22.2929 31.7071C22.1054 31.5196 22 31.2652 22 31V24H15C14.7348 24 14.4804 23.8946 14.2929 23.7071C14.1054 23.5196 14 23.2652 14 23C14 22.7348 14.1054 22.4804 14.2929 22.2929C14.4804 22.1054 14.7348 22 15 22H22V15C22 14.7348 22.1054 14.4804 22.2929 14.2929C22.4804 14.1054 22.7348 14 23 14C23.2652 14 23.5196 14.1054 23.7071 14.2929C23.8946 14.4804 24 14.7348 24 15V22H31C31.2652 22 31.5196 22.1054 31.7071 22.2929C31.8946 22.4804 32 22.7348 32 23C32 23.2652 31.8946 23.5196 31.7071 23.7071C31.5196 23.8946 31.2652 24 31 24H24Z" fill="white"/>
</svg>
