<svg width="40" height="40" viewBox="0 0 40 40" fill="none" xmlns="http://www.w3.org/2000/svg">
<path fill-rule="evenodd" clip-rule="evenodd" d="M28.3333 5C30.5434 5 32.6631 5.87797 34.2259 7.44078C35.7887 9.00358 36.6666 11.1232 36.6666 13.3333V26.6667C36.6666 28.8768 35.7887 30.9964 34.2259 32.5592C32.6631 34.122 30.5434 35 28.3333 35H4.99998C4.55795 35 4.13403 34.8244 3.82147 34.5118C3.50891 34.1993 3.33331 33.7754 3.33331 33.3333V13.3333C3.33331 11.1232 4.21129 9.00358 5.77409 7.44078C7.33689 5.87797 9.45651 5 11.6666 5H28.3333ZM15 16.6667C14.5918 16.6667 14.1978 16.8166 13.8927 17.0879C13.5876 17.3591 13.3927 17.7329 13.345 18.1383L13.3333 18.3333V21.6667C13.3338 22.0915 13.4964 22.5001 13.7881 22.8089C14.0797 23.1178 14.4782 23.3037 14.9023 23.3286C15.3264 23.3535 15.7439 23.2155 16.0697 22.9429C16.3955 22.6702 16.6048 22.2835 16.655 21.8617L16.6666 21.6667V18.3333C16.6666 17.8913 16.4911 17.4674 16.1785 17.1548C15.8659 16.8423 15.442 16.6667 15 16.6667ZM25 16.6667C24.558 16.6667 24.134 16.8423 23.8215 17.1548C23.5089 17.4674 23.3333 17.8913 23.3333 18.3333V21.6667C23.3333 22.1087 23.5089 22.5326 23.8215 22.8452C24.134 23.1577 24.558 23.3333 25 23.3333C25.442 23.3333 25.8659 23.1577 26.1785 22.8452C26.4911 22.5326 26.6666 22.1087 26.6666 21.6667V18.3333C26.6666 17.8913 26.4911 17.4674 26.1785 17.1548C25.8659 16.8423 25.442 16.6667 25 16.6667Z" fill="#00A3FF"/>
</svg>
